<svg width="1440" height="856" viewBox="0 0 1440 856" fill="none" xmlns="http://www.w3.org/2000/svg">
<path d="M95.9921 23.847C-23.5802 -38.7621 -114.509 52.9741 -145.027 106.668L-255.865 751.453L1506.83 1079.22L1660.38 491.743C1595.34 543.267 1444.19 605.071 1359.94 440.096C1275.69 275.12 1211.03 320.658 1112.26 364.502C1053.79 401.372 906.07 389.273 829.17 373.621C733.044 354.056 762.651 262.698 668.183 152.618C573.714 42.5375 472.3 38.5724 353.611 54.2291C234.922 69.8858 245.457 102.108 95.9921 23.847Z" fill="#A69CAC"/>
<path d="M286.353 378.634C193.485 231.059 -7.91724 176.154 -116.949 177.01H-167.897V915H1559.2L1649.1 645.325H1517.67C1494.12 690.844 1397.96 731.711 1201.7 531.029C1005.45 330.347 793.835 404.733 709.35 462.951C595.894 505.616 382.255 531.029 286.353 378.634Z" fill="#474973"/>
<path d="M-145.027 106.668L-146.766 105.68L-146.939 105.984L-146.998 106.33L-145.027 106.668ZM95.9921 23.847L96.9198 22.0752L96.9198 22.0752L95.9921 23.847ZM353.611 54.2291L353.873 56.2119L353.873 56.2119L353.611 54.2291ZM668.183 152.618L666.665 153.92L666.665 153.92L668.183 152.618ZM829.17 373.621L828.771 375.581L828.771 375.581L829.17 373.621ZM1112.26 364.502L1111.45 362.674L1111.32 362.733L1111.19 362.811L1112.26 364.502ZM1359.94 440.096L1358.15 441.005L1358.15 441.005L1359.94 440.096ZM1660.38 491.743L1662.32 492.248L1663.83 486.46L1659.14 490.175L1660.38 491.743ZM1506.83 1079.22L1506.46 1081.19L1508.29 1081.53L1508.76 1079.73L1506.83 1079.22ZM-255.865 751.453L-257.836 751.115L-258.171 753.059L-256.231 753.42L-255.865 751.453ZM-116.949 177.01V179.01H-116.941L-116.933 179.01L-116.949 177.01ZM286.353 378.634L288.046 377.569L288.046 377.569L286.353 378.634ZM709.35 462.951L710.054 464.823L710.283 464.737L710.485 464.598L709.35 462.951ZM1201.7 531.029L1203.13 529.631L1203.13 529.631L1201.7 531.029ZM1517.67 645.325V643.325H1516.45L1515.89 644.406L1517.67 645.325ZM1649.1 645.325L1651 645.958L1651.88 643.325H1649.1V645.325ZM1559.2 915V917H1560.64L1561.09 915.633L1559.2 915ZM-167.897 915H-169.897V917H-167.897V915ZM-167.897 177.01V175.01H-169.897V177.01H-167.897ZM-143.288 107.657C-128.171 81.0586 -98.0611 45.0159 -56.982 23.4141C-16.0055 1.86631 35.9222 -5.34853 95.0644 25.6188L96.9198 22.0752C36.4897 -9.56654 -16.8332 -2.21781 -58.8438 19.8738C-100.752 41.9114 -131.365 78.5839 -146.766 105.68L-143.288 107.657ZM95.0644 25.6188C169.788 64.7445 204.92 76.4914 236.357 76.2572C252.042 76.1404 266.721 73.04 284.738 69.0451C302.779 65.0447 324.297 60.1134 353.873 56.2119L353.349 52.2463C323.581 56.1732 301.907 61.1409 283.872 65.14C265.811 69.1446 251.528 72.1441 236.328 72.2573C205.994 72.4833 171.662 61.2108 96.9198 22.0752L95.0644 25.6188ZM353.873 56.2119C413.154 48.392 467.876 45.5117 519.502 58.2141C571.06 70.9001 619.678 99.168 666.665 153.92L669.7 151.315C622.219 95.987 572.895 67.2324 520.457 54.33C468.086 41.4441 412.757 44.4096 353.349 52.2463L353.873 56.2119ZM666.665 153.92C713.647 208.667 729.739 258.675 746.211 297.838C754.434 317.388 762.81 334.369 775.288 347.683C787.824 361.058 804.385 370.617 828.771 375.581L829.569 371.661C805.892 366.842 790.107 357.645 778.207 344.947C766.249 332.189 758.098 315.782 749.898 296.287C733.525 257.36 717.186 206.649 669.7 151.315L666.665 153.92ZM828.771 375.581C867.338 383.431 923.622 390.384 977.612 390.757C1004.61 390.944 1031.08 389.486 1054.5 385.656C1077.89 381.831 1098.38 375.617 1113.33 366.194L1111.19 362.811C1096.9 371.822 1077.01 377.922 1053.85 381.709C1030.72 385.491 1004.49 386.943 977.64 386.757C923.928 386.386 867.902 379.463 829.569 371.661L828.771 375.581ZM1113.07 366.33C1137.87 355.324 1160.29 344.321 1181.47 336.493C1202.63 328.679 1222.27 324.146 1241.35 325.982C1279.31 329.635 1316.09 358.644 1358.15 441.005L1361.72 439.186C1319.53 356.571 1281.86 325.862 1241.73 322.001C1221.78 320.08 1201.47 324.842 1180.09 332.741C1158.74 340.627 1136.04 351.759 1111.45 362.674L1113.07 366.33ZM1358.15 441.005C1379.35 482.514 1404.83 509.888 1432.23 526.714C1459.64 543.543 1488.85 549.748 1517.41 549.106C1574.44 547.823 1628.89 519.238 1661.63 493.31L1659.14 490.175C1626.83 515.771 1573.19 543.85 1517.32 545.107C1489.42 545.734 1460.99 539.678 1434.32 523.306C1407.66 506.931 1382.64 480.165 1361.72 439.186L1358.15 441.005ZM1658.45 491.237L1504.89 1078.72L1508.76 1079.73L1662.32 492.248L1658.45 491.237ZM1507.19 1077.26L-255.5 749.487L-256.231 753.42L1506.46 1081.19L1507.19 1077.26ZM-253.894 751.792L-143.056 107.007L-146.998 106.33L-257.836 751.115L-253.894 751.792ZM-116.933 179.01C-62.7073 178.584 14.6308 192.036 89.9825 224.002C165.331 255.966 238.512 306.365 284.661 379.699L288.046 377.569C241.327 303.328 167.372 252.487 91.5446 220.319C15.7201 188.153 -62.1586 174.58 -116.964 175.01L-116.933 179.01ZM284.661 379.699C333.047 456.588 411.109 488.532 491.085 495.932C571.03 503.329 653.11 486.237 710.054 464.823L708.646 461.079C652.134 482.331 570.667 499.278 491.453 491.949C412.27 484.622 335.562 453.075 288.046 377.569L284.661 379.699ZM710.485 464.598C752.462 435.671 826.105 402.687 913.63 401.902C1001.08 401.119 1102.52 432.473 1200.27 532.427L1203.13 529.631C1104.63 428.903 1002.14 397.109 913.594 397.902C825.128 398.695 750.722 432.013 708.215 461.304L710.485 464.598ZM1200.27 532.427C1298.51 632.879 1371.98 673.184 1424.1 682.472C1476.39 691.788 1507.23 669.859 1519.44 646.244L1515.89 644.406C1504.56 666.311 1475.54 687.574 1424.8 678.534C1373.9 669.464 1301.15 629.861 1203.13 529.631L1200.27 532.427ZM1517.67 647.325H1649.1V643.325H1517.67V647.325ZM1647.21 644.693L1557.3 914.367L1561.09 915.633L1651 645.958L1647.21 644.693ZM1559.2 913H-167.897V917H1559.2V913ZM-165.897 915V177.01H-169.897V915H-165.897ZM-167.897 179.01H-116.949V175.01H-167.897V179.01Z" fill="black"/>
</svg>
